<svg id="Layer_1" xmlns="http://www.w3.org/2000/svg" width="512" height="512" viewBox="0 0 512 512"><style>.st0{fill:#008cdb}</style><path class="st0" d="M256 76.7c98.9 0 179.3 80.4 179.3 179.3S354.9 435.3 256 435.3 76.7 354.9 76.7 256 157.1 76.7 256 76.7m0-10.7C151.1 66 66 151.1 66 256s85.1 190 190 190 190-85.1 190-190S360.9 66 256 66z"/><path class="st0" d="M284.6 223.2c-4.5-3.1-9.4-4.7-15-4.7-7.9 0-14.6 3-20.3 9-5.7 6-8.5 15.9-8.5 29.9 0 11.2 2.7 20 8.2 26.4 5.4 6.4 12.3 9.7 20.5 9.7 8.4 0 15.2-3.2 20.6-9.8 5.4-6.5 8.1-15.7 8.1-27.7 0-7.6-1.2-14.2-3.5-19.8-2.2-5.5-5.6-9.9-10.1-13z"/><path class="st0" d="M256 88.2c-92.6 0-167.8 75.1-167.8 167.8 0 92.6 75.1 167.8 167.8 167.8 92.6 0 167.8-75.1 167.8-167.8 0-92.6-75.2-167.8-167.8-167.8zm-68.2 214.3h-54.3v-13.9l22.8-28.9c3.7-4.7 6.5-8.1 8.3-10.1-1.9.1-4.3.2-7.4.3l-21.5.1v-14.8H186v12.6l-23.3 29.6-8.2 9.8c4.5-.3 7.2-.4 8.3-.4h24.9l.1 15.7zm15.4 1.5h-8.3l24.3-96h8.2l-24.2 96zm101.3-22.6c-3.4 7.4-8.3 13.1-14.6 16.9-6.3 3.8-13.1 5.7-20.4 5.7-7.9 0-15-2.1-21.2-6.3-6.2-4.2-10.9-10-14.2-17.3-3.2-7.3-4.8-15-4.8-23.2 0-15.4 3.7-27.5 11.2-36.2 7.5-8.7 17.1-13.1 29-13.1 7.8 0 14.7 2 21 6.1 6.2 4.1 11 9.8 14.2 17.1 3.3 7.3 4.9 15.6 4.9 24.9.1 9.6-1.6 18-5.1 25.4zm59.2 19c-4.8 2.4-10.2 3.6-16.2 3.6-7.6 0-14-1.2-19.1-3.7-5.1-2.4-9.2-6.1-12.1-11.1-2.9-4.9-4.5-10.5-4.6-16.7l10.5-1c.5 4.6 1.7 8.5 3.5 11.4 1.8 3 4.6 5.4 8.4 7.2 3.8 1.8 8.1 2.8 12.9 2.8 4.2 0 8-.7 11.2-2.1 3.2-1.4 5.7-3.3 7.2-5.7 1.6-2.4 2.4-5.1 2.4-7.9 0-2.9-.8-5.5-2.3-7.6-1.5-2.2-4-4-7.6-5.5-2.3-1-7.2-2.5-14.9-4.5s-13.1-4-16.2-5.8c-4-2.3-7-5.2-9-8.6-2-3.4-3-7.3-3-11.6 0-4.7 1.2-9.1 3.6-13.1s5.9-7.2 10.5-9.3c4.6-2.1 9.8-3.2 15.4-3.2 6.2 0 11.7 1.1 16.5 3.3 4.8 2.2 8.4 5.5 11 9.8 2.6 4.3 3.9 9.2 4.1 14.6l-10.7.9c-.6-5.9-2.5-10.3-5.8-13.3s-8.2-4.5-14.6-4.5c-6.7 0-11.6 1.4-14.7 4.1-3.1 2.7-4.6 6-4.6 9.8 0 3.3 1.1 6.1 3.3 8.2 2.1 2.2 7.7 4.4 16.8 6.6 9 2.3 15.2 4.2 18.6 5.9 4.9 2.5 8.5 5.6 10.8 9.5 2.3 3.8 3.5 8.2 3.5 13.2 0 4.9-1.3 9.6-3.8 14-2.6 4.5-6.3 7.9-11 10.3z"/></svg>